<?xml version="1.0" encoding="UTF-8" standalone="no"?>
<!-- Uploaded to: SVG Repo, www.svgrepo.com, Generator: SVG Repo Mixer Tools -->

<svg
   height="800px"
   width="800px"
   version="1.1"
   id="sun"
   viewBox="0 0 1010 1010"
   enable-background="new 0 0 1010 1010"
   xml:space="preserve"
   sodipodi:docname="logo.svg"
   inkscape:version="1.3 (0e150ed6c4, 2023-07-21)"
   xmlns:inkscape="http://www.inkscape.org/namespaces/inkscape"
   xmlns:sodipodi="http://sodipodi.sourceforge.net/DTD/sodipodi-0.dtd"
   xmlns="http://www.w3.org/2000/svg"
   xmlns:svg="http://www.w3.org/2000/svg"><defs
   id="defs11" /><sodipodi:namedview
   id="namedview11"
   pagecolor="#505050"
   bordercolor="#eeeeee"
   borderopacity="1"
   inkscape:showpageshadow="0"
   inkscape:pageopacity="0"
   inkscape:pagecheckerboard="0"
   inkscape:deskcolor="#d1d1d1"
   inkscape:zoom="0.89"
   inkscape:cx="399.4382"
   inkscape:cy="400"
   inkscape:window-width="1920"
   inkscape:window-height="970"
   inkscape:window-x="-12"
   inkscape:window-y="-12"
   inkscape:window-maximized="1"
   inkscape:current-layer="sun-sun" />&#10;<g
   id="sun-sun">&#10;	<g
   id="sun-fill">&#10;		<path
   fill="#FFCA72"
   d="M826.1182,505c0,177.335-143.7831,321.1006-321.084,321.1006    C327.7417,826.1006,183.916,682.335,183.916,505c0-177.3184,143.8257-321.1182,321.1182-321.1182    C682.335,183.8818,826.1182,327.6816,826.1182,505z"
   id="path1" />&#10;	</g>&#10;	<g
   id="sun-line">&#10;		<g
   id="g2">&#10;			<path
   fill="#37474F"
   d="M505.0342,833.0557c-180.9146,0-328.0899-147.1671-328.0899-328.0557     c0-180.9233,147.1753-328.0903,328.0899-328.0903c180.8896,0,328.039,147.167,328.039,328.0903     C833.0732,685.8887,685.9238,833.0557,505.0342,833.0557L505.0342,833.0557z M505.0342,212.9785     c-161.0181,0-292.0215,131.0117-292.0215,292.0215c0,160.9922,131.0034,291.9873,292.0215,291.9873     c160.9931,0,291.9697-130.9951,291.9697-291.9873C797.0039,343.9902,666.0273,212.9785,505.0342,212.9785L505.0342,212.9785z"
   id="path2" />&#10;		</g>&#10;		<g
   id="g11">&#10;			<g
   id="g3">&#10;				<polygon
   fill="#37474F"
   points="1010,523.043 914.5986,523.043 914.5986,486.957 1010,486.957 1010,523.043     "
   id="polygon2" />&#10;			</g>&#10;			<g
   id="g4">&#10;				<polygon
   fill="#37474F"
   points="95.3936,523.043 0,523.043 0,486.957 95.3936,486.957 95.3936,523.043     "
   id="polygon3" />&#10;			</g>&#10;			<g
   id="g5">&#10;				<polygon
   fill="#37474F"
   points="524.999,95.3506 488.9385,95.3506 488.9385,0 524.999,0 524.999,95.3506     "
   id="polygon4" />&#10;			</g>&#10;			<g
   id="g6">&#10;				<polygon
   fill="#37474F"
   points="204.9355,244.8813 138.1455,178.0322 163.6709,152.5234 230.4609,219.373 204.9355,244.8813           "
   id="polygon5" />&#10;			</g>&#10;			<g
   id="g7">&#10;				<polygon
   fill="#37474F"
   points="805.1162,244.8813 779.6074,219.373 846.3711,152.5234 871.8809,178.0322 805.1162,244.8813           "
   id="polygon6" />&#10;			</g>&#10;			<g
   id="g8">&#10;				<polygon
   fill="#37474F"
   points="524.999,1010 488.9385,1010 488.9385,914.6152 524.999,914.6152 524.999,1010     "
   id="polygon7" />&#10;			</g>&#10;			<g
   id="g9">&#10;				<polygon
   fill="#37474F"
   points="163.6709,857.459 138.1455,831.9512 204.9355,765.1016 230.4609,790.6094 163.6709,857.459           "
   id="polygon8" />&#10;			</g>&#10;			<g
   id="g10">&#10;				<polygon
   fill="#37474F"
   points="846.3711,857.459 779.6074,790.6094 805.1162,765.1016 871.8809,831.9512 846.3711,857.459           "
   id="polygon9" />&#10;			</g>&#10;		</g>&#10;	</g>&#10;</g>&#10;</svg>
